{"title":"BBC Proms 2012 - 5. Strauss, Saariaho &amp; Sibelius [MP4.468p.A","uid":7462588,"size":1338739917,"categoryP":"video","categoryS":"music_videos","magnet":"?xt=urn:btih:31e7caa3f8e35cf8b5e081497b9d06b037595d70&amp;dn=BBC+Proms+2012+-+5.+Strauss%2C+Saariaho+%26amp%3B+Sibelius+%5BMP4.468p.A&amp;tr=udp%3A%2F%2Ftracker.openbittorrent.com%3A80&amp;tr=udp%3A%2F%2Fopen.demonii.com%3A1337&amp;tr=udp%3A%2F%2Ftracker.coppersurfer.tk%3A6969&amp;tr=udp%3A%2F%2Fexodus.desync.com%3A6969","seeders":1,"leechers":0,"uploader":"deandominic","files":3,"time":1342876687,"description":"Prom 5. Strauss, Saariaho &amp; Sibelius\n\nMaking his Proms debut as the BBC Philharmonic's Chief Conductor, Juanjo Mena explores Strauss the impatient visionary, whose Also sprach Zarathustra was famously used on the soundtrack of Stanley Kubrick's 2001: A Space Odyssey. Strauss's Four Last Songs exude a sense of calm resignation suffused with autumn light. \n\nAfter the interval, a major UK premiere from Kaija Saariaho, whose own music is lit by atmosphere and mood. Inspired by the autobiography of Ingmar Bergman, the Swedish film director, Laterna magica includes sections in which players whisper extracts over an instrumental murmur. To conclude, the hard-won luminescence of Sibelius's (unintended) symphonic farewell.\n\nR. Strauss - Also sprach Zarathustra (32 mins)\nR. Strauss - Four Last Songs (22 mins)\nKaija Saariaho - Laterna magica (22 mins)\nSibelius - Symphony No. 7 in C major (23 mins)\n\nFormat                                   : MPEG-4\nFormat profile                           : Base Media\nCodec ID                                 : isom\nFile size                                : 1.25 GiB\nDuration                                 : 1h 58mn\nOverall bit rate mode                    : Constant\nOverall bit rate                         : 1 503 Kbps\n\nVideo\nID                                       : 1\nFormat                                   : AVC\nFormat/Info                              : Advanced Video Codec\nFormat profile                           : &lt;a class=&quot;__cf_email__&quot; href=&quot;/cdn-cgi/l/email-protection&quot; data-cfemail=&quot;7439151d1a3438475a44&quot;&gt;[email&amp;#160;protected]&lt;/a&gt;&lt;script cf-hash='f9e31' type=&quot;text/javascript&quot;&gt;\n/* &lt;![CDATA[ */!function(){try{var t=&quot;currentScript&quot;in document?document.currentScript:function(){for(var t=document.getElementsByTagName(&quot;script&quot;),e=t.length;e--;)if(t[e].getAttribute(&quot;cf-hash&quot;))return t[e]}();if(t&amp;&amp;t.previousSibling){var e,r,n,i,c=t.previousSibling,a=c.getAttribute(&quot;data-cfemail&quot;);if(a){for(e=&quot;&quot;,r=parseInt(a.substr(0,2),16),n=2;a.length-n;n+=2)i=parseInt(a.substr(n,2),16)^r,e+=String.fromCharCode(i);e=document.createTextNode(e),c.parentNode.replaceChild(e,c)}}}catch(u){}}();/* ]]&gt; */&lt;/script&gt;\nFormat settings, CABAC                   : Yes\nFormat settings, ReFrames                : 4 frames\nCodec ID                                 : avc1\nCodec ID/Info                            : Advanced Video Coding\nDuration                                 : 1h 58mn\nBit rate mode                            : Constant\nBit rate                                 : 1 404 Kbps\nWidth                                    : 832 pixels\nHeight                                   : 468 pixels\nDisplay aspect ratio                     : 16:9\nFrame rate mode                          : Constant\nFrame rate                               : 25.000 fps\nStandard                                 : PAL\nColor space                              : YUV\nChroma subsampling                       : 4:2:0\nBit depth                                : 8 bits\nScan type                                : Progressive\nBits/(Pixel*Frame)                       : 0.144\nStream size                              : 1.16 GiB (93%)\n\nAudio\nID                                       : 2\nFormat                                   : AAC\nFormat/Info                              : Advanced Audio Codec\nFormat profile                           : HE-AAC / LC\nCodec ID                                 : 40\nDuration                                 : 1h 58mn\nBit rate mode                            : Constant\nBit rate                                 : 96.0 Kbps\nChannel(s)                               : 2 channels\nChannel positions                        : Front: L R\nSampling rate                            : 48.0 KHz / 24.0 KHz\nCompression mode                         : Lossy\nStream size                              : 80.5 MiB (6%)\n","torrent":{"xt":"urn:btih:31e7caa3f8e35cf8b5e081497b9d06b037595d70","amp;dn":"BBC+Proms+2012+-+5.+Strauss%2C+Saariaho+%26amp%3B+Sibelius+%5BMP4.468p.A","amp;tr":["udp%3A%2F%2Ftracker.openbittorrent.com%3A80","udp%3A%2F%2Fopen.demonii.com%3A1337","udp%3A%2F%2Ftracker.coppersurfer.tk%3A6969","udp%3A%2F%2Fexodus.desync.com%3A6969"],"infoHash":"31e7caa3f8e35cf8b5e081497b9d06b037595d70","infoHashBuffer":{"type":"Buffer","data":[49,231,202,163,248,227,92,248,181,224,129,73,123,157,6,176,55,89,93,112]},"announce":[],"urlList":[]}}